<svg width="47" height="16" viewBox="0 0 47 16" fill="none" xmlns="http://www.w3.org/2000/svg">
<path fill-rule="evenodd" clip-rule="evenodd" d="M9.50536 10.5244L13.2052 0V0.00169999H17.2007L11.2634 15.4751H7.26782L3.87988 2.15915C6.27345 3.45182 8.41821 6.05416 9.10232 8.44893L9.50536 10.5244ZM18.7234 0L16.3608 15.4906H20.1371L22.4982 0H18.7234ZM30.114 6.31001C28.7944 5.62339 27.9854 5.15997 27.9854 4.45771C28.0016 3.81919 28.6695 3.16504 30.1612 3.16504C31.388 3.13257 32.2898 3.43636 32.9739 3.73861L33.3166 3.89977L33.83 0.658748C33.0841 0.35496 31.9014 0.0202332 30.4406 0.0202332C26.7114 0.0202332 24.0855 2.06311 24.0693 4.98487C24.0384 7.14097 25.9492 8.33742 27.3792 9.05515C28.8401 9.79142 29.3373 10.2688 29.3373 10.9229C29.3212 11.9273 28.1561 12.3907 27.069 12.3907C25.5627 12.3907 24.7535 12.152 23.5252 11.5924L23.0279 11.3537L22.4998 14.7219C23.3869 15.1374 25.0183 15.503 26.7116 15.5217C30.6747 15.5217 33.2535 13.5098 33.2859 10.3959C33.2988 8.68778 32.2912 7.37947 30.114 6.31001ZM40.5896 0.0479431H43.5113L46.5563 15.503H43.0609L42.4946 12.4171H38.0607L36.9692 15.4906H33.006L38.6154 1.2942C39.0052 0.320791 39.6893 0.0479431 40.5896 0.0479431ZM39.1601 9.31341C39.2407 9.30561 40.6809 4.29706 40.6809 4.29706L41.8313 9.31341H39.1601Z" fill="white"/>
<path d="M7.85631 2.1091C7.58589 0.860246 6.72347 0.0179742 5.5522 0H0.0565964L0 0.303045C4.28695 1.55837 7.88521 5.42103 9.05255 9.05434L7.85631 2.1091Z" fill="white"/>
</svg>
